<svg width="1600" height="1000" viewBox="0 0 1600 1000" fill="none" xmlns="http://www.w3.org/2000/svg">
  <defs>
    <linearGradient id="bg" x1="0" y1="0" x2="1600" y2="1000" gradientUnits="userSpaceOnUse">
      <stop stop-color="#EAFBFA"/>
      <stop offset="1" stop-color="#F8FBFF"/>
    </linearGradient>
    <linearGradient id="feature" x1="1050" y1="276" x2="1350" y2="436" gradientUnits="userSpaceOnUse">
      <stop stop-color="#F4FAFF"/>
      <stop offset="1" stop-color="#E9F4FF"/>
    </linearGradient>
    <filter id="shadow" x="108" y="75" width="1384" height="850" filterUnits="userSpaceOnUse" color-interpolation-filters="sRGB">
      <feFlood flood-opacity="0" result="BackgroundImageFix"/>
      <feColorMatrix in="SourceAlpha" type="matrix" values="0 0 0 0 0 0 0 0 0 0 0 0 0 0 0 0 0 0 127 0" result="hardAlpha"/>
      <feOffset dy="18"/>
      <feGaussianBlur stdDeviation="34"/>
      <feComposite in2="hardAlpha" operator="out"/>
      <feColorMatrix type="matrix" values="0 0 0 0 0.0588235 0 0 0 0 0.298039 0 0 0 0 0.419608 0 0 0 0.16 0"/>
      <feBlend mode="normal" in2="BackgroundImageFix" result="effect1_dropShadow"/>
      <feBlend mode="normal" in="SourceGraphic" in2="effect1_dropShadow" result="shape"/>
    </filter>
  </defs>
  <rect width="1600" height="1000" rx="42" fill="url(#bg)"/>
  <g filter="url(#shadow)">
    <rect x="160" y="120" width="1280" height="760" rx="32" fill="#FFFFFF" stroke="#DCE7E8" stroke-width="2"/>
    <rect x="160" y="120" width="220" height="760" rx="32" fill="#F8FBFF"/>
    <rect x="348" y="120" width="32" height="760" fill="#F8FBFF"/>

    <text x="224" y="226" fill="#06295B" font-family="Inter, Arial, sans-serif" font-size="52" font-weight="900">F.</text>
    <text x="214" y="274" fill="#06295B" font-family="Inter, Arial, sans-serif" font-size="24" font-weight="900">Coach Central</text>
    <rect x="204" y="374" width="136" height="52" rx="14" fill="#E8F3FF"/>
    <circle cx="232" cy="400" r="10" fill="#2F73FF"/>
    <text x="260" y="408" fill="#0B2E63" font-family="Inter, Arial, sans-serif" font-size="18" font-weight="900">Tools</text>
    <circle cx="232" cy="480" r="10" fill="#B8C6D9"/>
    <rect x="260" y="472" width="70" height="16" rx="8" fill="#B8C6D9"/>
    <circle cx="232" cy="544" r="10" fill="#B8C6D9"/>
    <rect x="260" y="536" width="92" height="16" rx="8" fill="#B8C6D9"/>
    <circle cx="232" cy="608" r="10" fill="#B8C6D9"/>
    <rect x="260" y="600" width="82" height="16" rx="8" fill="#B8C6D9"/>
    <rect x="204" y="742" width="134" height="2" fill="#DDE7EA"/>
    <rect x="204" y="786" width="112" height="18" rx="9" fill="#0B2E63"/>
    <rect x="204" y="822" width="142" height="34" rx="17" fill="#FFFFFF" stroke="#2F73FF" stroke-width="2"/>
    <text x="230" y="845" fill="#0B2E63" font-family="Inter, Arial, sans-serif" font-size="15" font-weight="900">Get support</text>

    <rect x="440" y="168" width="520" height="58" rx="29" fill="#FFFFFF" stroke="#DDE7EA" stroke-width="2"/>
    <circle cx="482" cy="197" r="12" stroke="#52698F" stroke-width="5"/>
    <line x1="491" y1="207" x2="503" y2="219" stroke="#52698F" stroke-width="5" stroke-linecap="round"/>
    <text x="528" y="206" fill="#52698F" font-family="Inter, Arial, sans-serif" font-size="18" font-weight="700">Search tools, resources, or topics...</text>
    <circle cx="1210" cy="198" r="18" fill="#EEF5FF"/>
    <circle cx="1210" cy="198" r="6" fill="#FF2D2D"/>
    <rect x="1260" y="168" width="144" height="58" rx="29" fill="#FFFFFF" stroke="#DDE7EA" stroke-width="2"/>
    <circle cx="1294" cy="197" r="24" fill="#085FE8"/>
    <text x="1282" y="205" fill="#FFFFFF" font-family="Inter, Arial, sans-serif" font-size="17" font-weight="900">SX</text>
    <text x="1330" y="204" fill="#0B2E63" font-family="Inter, Arial, sans-serif" font-size="17" font-weight="900">Salena</text>

    <text x="440" y="330" fill="#06295B" font-family="Inter, Arial, sans-serif" font-size="68" font-weight="900">Tools</text>
    <circle cx="624" cy="311" r="12" fill="#2F9DFF"/>
    <text x="440" y="382" fill="#52698F" font-family="Inter, Arial, sans-serif" font-size="24" font-weight="700">Access key coaching platforms</text>
    <text x="440" y="418" fill="#52698F" font-family="Inter, Arial, sans-serif" font-size="24" font-weight="700">from one organized workspace.</text>

    <line x1="1002" y1="274" x2="1002" y2="442" stroke="#C9D7E3" stroke-width="3"/>
    <rect x="1050" y="260" width="314" height="212" rx="30" fill="url(#feature)"/>
    <text x="1090" y="326" fill="#0B2E63" font-family="Inter, Arial, sans-serif" font-size="28" font-weight="900">Coaching</text>
    <text x="1090" y="368" fill="#0B2E63" font-family="Inter, Arial, sans-serif" font-size="28" font-weight="900">a Better</text>
    <text x="1090" y="410" fill="#0B2E63" font-family="Inter, Arial, sans-serif" font-size="28" font-weight="900">Tomorrow.</text>
    <circle cx="1308" cy="408" r="8" fill="#2F9DFF"/>
    <rect x="1266" y="286" width="86" height="18" rx="9" transform="rotate(-45 1266 286)" fill="#063987"/>
    <rect x="1294" y="344" width="116" height="18" rx="9" transform="rotate(-45 1294 344)" fill="#21B8EF"/>
    <rect x="1350" y="394" width="82" height="18" rx="9" transform="rotate(-45 1350 394)" fill="#82D995"/>

    <g>
      <rect x="440" y="500" width="286" height="150" rx="24" fill="#FFFFFF" stroke="#E3EBEF" stroke-width="2"/>
      <circle cx="504" cy="560" r="34" fill="#EEF5FF"/>
      <text x="486" y="573" fill="#2F73FF" font-family="Inter, Arial, sans-serif" font-size="38" font-weight="900">G</text>
      <text x="556" y="554" fill="#06295B" font-family="Inter, Arial, sans-serif" font-size="22" font-weight="900">Google</text>
      <text x="556" y="584" fill="#06295B" font-family="Inter, Arial, sans-serif" font-size="22" font-weight="900">Workspace</text>
      <rect x="556" y="612" width="126" height="14" rx="7" fill="#D9EAFE"/>
    </g>
    <g>
      <rect x="766" y="500" width="286" height="150" rx="24" fill="#FFFFFF" stroke="#E3EBEF" stroke-width="2"/>
      <circle cx="830" cy="560" r="34" fill="#EEF5FF"/>
      <text x="812" y="574" fill="#0F64FF" font-family="Inter, Arial, sans-serif" font-size="42" font-weight="900">K</text>
      <text x="882" y="568" fill="#06295B" font-family="Inter, Arial, sans-serif" font-size="22" font-weight="900">Kennected</text>
      <rect x="882" y="604" width="132" height="14" rx="7" fill="#D9EAFE"/>
    </g>
    <g>
      <rect x="1092" y="500" width="286" height="150" rx="24" fill="#FFFFFF" stroke="#E3EBEF" stroke-width="2"/>
      <circle cx="1156" cy="560" r="34" fill="#DDF7E3"/>
      <rect x="1134" y="564" width="12" height="26" rx="6" fill="#57C978"/>
      <rect x="1152" y="542" width="12" height="48" rx="6" fill="#57C978"/>
      <rect x="1170" y="522" width="12" height="68" rx="6" fill="#57C978"/>
      <text x="1208" y="568" fill="#06295B" font-family="Inter, Arial, sans-serif" font-size="22" font-weight="900">KRA Form</text>
      <rect x="1208" y="604" width="118" height="14" rx="7" fill="#D9EAFE"/>
    </g>
    <g>
      <rect x="440" y="682" width="286" height="150" rx="24" fill="#FFFFFF" stroke="#E3EBEF" stroke-width="2"/>
      <circle cx="504" cy="742" r="34" fill="#EFF8FF"/>
      <text x="476" y="755" fill="#2F9DFF" font-family="Inter, Arial, sans-serif" font-size="42" font-weight="900">on</text>
      <text x="556" y="750" fill="#06295B" font-family="Inter, Arial, sans-serif" font-size="22" font-weight="900">Ontraport</text>
      <rect x="556" y="786" width="132" height="14" rx="7" fill="#D9EAFE"/>
    </g>
    <g>
      <rect x="766" y="682" width="286" height="150" rx="24" fill="#FFFFFF" stroke="#E3EBEF" stroke-width="2"/>
      <circle cx="830" cy="742" r="34" fill="#DDF7E3"/>
      <text x="818" y="756" fill="#06295B" font-family="Inter, Arial, sans-serif" font-size="48" font-weight="900">P</text>
      <text x="882" y="750" fill="#06295B" font-family="Inter, Arial, sans-serif" font-size="22" font-weight="900">Success Guide</text>
      <rect x="882" y="786" width="114" height="14" rx="7" fill="#CBEFCE"/>
    </g>
    <g>
      <rect x="1092" y="682" width="286" height="150" rx="24" fill="#FFFFFF" stroke="#E3EBEF" stroke-width="2"/>
      <circle cx="1156" cy="742" r="34" fill="#2F73FF"/>
      <rect x="1134" y="726" width="34" height="28" rx="7" fill="#FFFFFF"/>
      <path d="M1170 734L1186 724V756L1170 746V734Z" fill="#FFFFFF"/>
      <text x="1208" y="750" fill="#06295B" font-family="Inter, Arial, sans-serif" font-size="22" font-weight="900">Zoom</text>
      <rect x="1208" y="786" width="118" height="14" rx="7" fill="#D9EAFE"/>
    </g>
  </g>
</svg>
